<svg width="40" height="39" viewBox="0 0 40 39" fill="none" xmlns="http://www.w3.org/2000/svg">
<circle cx="20.3929" cy="19.4998" r="19.5" fill="#E3B873"/>
<path d="M24.5714 11.699H16.2142C13.9065 11.699 12.0356 13.5698 12.0356 15.8775V24.2347C12.0356 26.5424 13.9065 28.4133 16.2142 28.4133H24.5714C26.8791 28.4133 28.7499 26.5424 28.7499 24.2347V15.8775C28.7499 13.5698 26.8791 11.699 24.5714 11.699Z" stroke="white" stroke-width="1.5"/>
<path d="M23.7356 19.5298C23.8388 20.2253 23.72 20.9356 23.3961 21.5597C23.0723 22.1838 22.5599 22.6899 21.9318 23.0061C21.3038 23.3222 20.592 23.4322 19.8978 23.3205C19.2036 23.2088 18.5623 22.881 18.0652 22.3839C17.568 21.8867 17.2402 21.2454 17.1285 20.5512C17.0168 19.857 17.1268 19.1452 17.443 18.5172C17.7591 17.8891 18.2652 17.3767 18.8893 17.0529C19.5134 16.7291 20.2237 16.6103 20.9193 16.7134C21.6287 16.8186 22.2855 17.1492 22.7927 17.6563C23.2998 18.1635 23.6304 18.8203 23.7356 19.5298Z" stroke="white" stroke-width="1.5" stroke-linecap="round" stroke-linejoin="round"/>
</svg>
