<svg width="108" height="110" viewBox="0 0 108 110" fill="none" xmlns="http://www.w3.org/2000/svg">
<g filter="url(#filter0_d)">
<rect x="18" y="15" width="70" height="70" fill="#E3B873"/>
</g>
<path d="M60.6292 30.9244L60.4547 31.893C63.4466 33.0071 66.1541 34.832 68.3396 37.2474C71.6824 40.9431 73.5234 45.7243 73.5234 50.7117C73.5234 50.7918 73.4589 50.8563 73.3789 50.8563C73.299 50.8563 73.2343 50.7916 73.2343 50.7117C73.2343 40.8164 66.0045 32.5241 56.2983 31.1296L55.7272 31.0475V31.6245V32.9156C55.7272 32.9956 55.6627 33.0601 55.5827 33.0601H51.3116C51.2318 33.0601 51.1671 32.9954 51.1671 32.9156V31.6245V31.0475L50.596 31.1296C40.8898 32.5241 33.6597 40.8164 33.6597 50.7117C33.6597 50.7916 33.595 50.8563 33.5151 50.8563C33.4353 50.8563 33.3706 50.7916 33.3706 50.7117C33.3706 45.7243 35.2116 40.9431 38.5548 37.2475C40.7399 34.832 43.4474 33.0074 46.4393 31.8933L46.2648 30.9248H38.3273H37.9655L37.8524 31.2685C37.646 31.8956 37.0549 32.3481 36.3625 32.3481C35.4982 32.3481 34.7943 31.6443 34.7943 30.7802C34.7943 29.916 35.4983 29.212 36.3625 29.212C37.0549 29.212 37.646 29.6644 37.8523 30.2919L37.9654 30.6357H38.3273H50.6671H51.1671V30.1357V28.6445C51.1671 28.5647 51.2318 28.5 51.3116 28.5H55.5827C55.6627 28.5 55.7272 28.5645 55.7272 28.6445V30.1354V30.6354H56.2272H68.567H68.9289L69.042 30.2916C69.2483 29.6644 69.8394 29.212 70.5315 29.212C71.3958 29.212 72.0997 29.9158 72.0997 30.7799C72.0997 31.6442 71.396 32.3481 70.5315 32.3481C69.8391 32.3481 69.248 31.8957 69.0417 31.2682L68.9286 30.9244H68.5667H60.6292ZM51.4562 32.271V32.771H51.9562H54.9382H55.4382V32.271V30.892V30.8897V30.7816V30.7799V30.7782V29.2891V28.7891H54.9382H51.9562H51.4562V29.2891V30.8907V30.891V32.271ZM71.8106 30.7799C71.8106 30.0743 71.2372 29.5011 70.5315 29.5011C69.8258 29.5011 69.2524 30.0743 69.2524 30.7799C69.2524 31.4857 69.8257 32.059 70.5315 32.059C71.2373 32.059 71.8106 31.4857 71.8106 30.7799ZM35.0834 30.7802C35.0834 31.4859 35.6568 32.059 36.3625 32.059C37.0682 32.059 37.6416 31.4859 37.6416 30.7802C37.6416 30.0744 37.0683 29.5011 36.3625 29.5011C35.6567 29.5011 35.0834 30.0744 35.0834 30.7802Z" fill="white" stroke="white" stroke-width="0.999998"/>
<mask id="path-3-inside-1" fill="white">
<path d="M55.4336 35.4489C55.3198 35.2448 55.1046 35.1183 54.871 35.1183H52.0233C51.79 35.1183 51.5745 35.2448 51.4607 35.4489L42.9182 50.7536C42.8649 50.8496 42.8367 50.9577 42.8367 51.0678V51.7798C42.8367 51.9017 42.8712 52.0208 42.9364 52.1239L46.583 57.8975H44.1929C43.837 57.8975 43.5483 58.1859 43.5483 58.542C43.5483 58.8979 43.837 59.1866 44.1929 59.1866H44.2603V61.3894C44.2603 61.7456 44.5487 62.0339 44.9049 62.0339H45.6837V64.2371C45.6837 64.5929 45.9724 64.8816 46.3282 64.8816H47.1077V67.0821V67.0845V67.0871V71.3555C47.1077 71.7117 47.3964 72 47.7522 72H59.142C59.4979 72 59.7866 71.7117 59.7866 71.3555V64.8816H60.5657C60.9215 64.8816 61.2102 64.5929 61.2102 64.2371V62.0339H61.9894C62.3452 62.0339 62.6339 61.7456 62.6339 61.3894V59.1866H62.7014C63.0572 59.1866 63.3459 58.8979 63.3459 58.542C63.3459 58.1859 63.0572 57.8975 62.7014 57.8975H61.9911C61.9904 57.8975 61.99 57.8975 61.9894 57.8975C61.9887 57.8975 61.9884 57.8975 61.9877 57.8975H60.3112L63.9579 52.1239C64.023 52.0208 64.0576 51.9017 64.0576 51.7798V51.0678C64.0576 50.9577 64.0294 50.8496 63.9757 50.7536L55.4336 35.4489ZM53.4473 49.2208C53.877 49.2208 54.2264 49.5703 54.2264 50C54.2264 50.4296 53.877 50.7791 53.4473 50.7791C53.0176 50.7791 52.6682 50.4296 52.6682 50C52.6682 49.5703 53.0176 49.2208 53.4473 49.2208ZM59.9212 63.5922H52.8494C52.4936 63.5922 52.2049 63.8809 52.2049 64.2368C52.2049 64.5929 52.4936 64.8813 52.8494 64.8813H58.4975V66.4396H57.718C57.3622 66.4396 57.0735 66.7279 57.0735 67.0841C57.0735 67.4403 57.3622 67.7287 57.718 67.7287H58.4971V70.711H48.3968V67.729H49.1759C49.5318 67.729 49.8205 67.4406 49.8205 67.0845C49.8205 66.7283 49.5318 66.4399 49.1759 66.4399H48.3968V64.8813H50.0954C50.4516 64.8813 50.7399 64.5929 50.7399 64.2368C50.7399 63.8809 50.4516 63.5922 50.0954 63.5922H46.9728V62.0339H59.9212V63.5922ZM61.3448 60.7449H45.5494V59.1866H59.14H59.1413H59.1427H61.3448V60.7449ZM62.7685 51.5932L61.4842 53.6265H59.8537C59.4979 53.6265 59.2092 53.9148 59.2092 54.271C59.2092 54.6272 59.4979 54.9155 59.8537 54.9155H60.6701L58.7865 57.8975H54.0915V56.4064C54.0915 56.0505 53.8031 55.7618 53.447 55.7618C53.0911 55.7618 52.8024 56.0505 52.8024 56.4064V57.8975H48.1074L46.2242 54.9155H47.0402C47.3964 54.9155 47.6848 54.6272 47.6848 54.271C47.6848 53.9148 47.3964 53.6265 47.0402 53.6265H45.4098L44.1257 51.5932V51.2353L52.4019 36.4074H52.8024V48.0351C51.977 48.3067 51.3787 49.0845 51.3787 49.9996C51.3787 51.1403 52.3066 52.0682 53.447 52.0682C54.5877 52.0682 55.5155 51.1403 55.5155 49.9996C55.5155 49.0845 54.9173 48.3064 54.0918 48.0351V36.4074H54.4923L62.7685 51.2353V51.5932Z"/>
</mask>
<path d="M55.4336 35.4489C55.3198 35.2448 55.1046 35.1183 54.871 35.1183H52.0233C51.79 35.1183 51.5745 35.2448 51.4607 35.4489L42.9182 50.7536C42.8649 50.8496 42.8367 50.9577 42.8367 51.0678V51.7798C42.8367 51.9017 42.8712 52.0208 42.9364 52.1239L46.583 57.8975H44.1929C43.837 57.8975 43.5483 58.1859 43.5483 58.542C43.5483 58.8979 43.837 59.1866 44.1929 59.1866H44.2603V61.3894C44.2603 61.7456 44.5487 62.0339 44.9049 62.0339H45.6837V64.2371C45.6837 64.5929 45.9724 64.8816 46.3282 64.8816H47.1077V67.0821V67.0845V67.0871V71.3555C47.1077 71.7117 47.3964 72 47.7522 72H59.142C59.4979 72 59.7866 71.7117 59.7866 71.3555V64.8816H60.5657C60.9215 64.8816 61.2102 64.5929 61.2102 64.2371V62.0339H61.9894C62.3452 62.0339 62.6339 61.7456 62.6339 61.3894V59.1866H62.7014C63.0572 59.1866 63.3459 58.8979 63.3459 58.542C63.3459 58.1859 63.0572 57.8975 62.7014 57.8975H61.9911C61.9904 57.8975 61.99 57.8975 61.9894 57.8975C61.9887 57.8975 61.9884 57.8975 61.9877 57.8975H60.3112L63.9579 52.1239C64.023 52.0208 64.0576 51.9017 64.0576 51.7798V51.0678C64.0576 50.9577 64.0294 50.8496 63.9757 50.7536L55.4336 35.4489ZM53.4473 49.2208C53.877 49.2208 54.2264 49.5703 54.2264 50C54.2264 50.4296 53.877 50.7791 53.4473 50.7791C53.0176 50.7791 52.6682 50.4296 52.6682 50C52.6682 49.5703 53.0176 49.2208 53.4473 49.2208ZM59.9212 63.5922H52.8494C52.4936 63.5922 52.2049 63.8809 52.2049 64.2368C52.2049 64.5929 52.4936 64.8813 52.8494 64.8813H58.4975V66.4396H57.718C57.3622 66.4396 57.0735 66.7279 57.0735 67.0841C57.0735 67.4403 57.3622 67.7287 57.718 67.7287H58.4971V70.711H48.3968V67.729H49.1759C49.5318 67.729 49.8205 67.4406 49.8205 67.0845C49.8205 66.7283 49.5318 66.4399 49.1759 66.4399H48.3968V64.8813H50.0954C50.4516 64.8813 50.7399 64.5929 50.7399 64.2368C50.7399 63.8809 50.4516 63.5922 50.0954 63.5922H46.9728V62.0339H59.9212V63.5922ZM61.3448 60.7449H45.5494V59.1866H59.14H59.1413H59.1427H61.3448V60.7449ZM62.7685 51.5932L61.4842 53.6265H59.8537C59.4979 53.6265 59.2092 53.9148 59.2092 54.271C59.2092 54.6272 59.4979 54.9155 59.8537 54.9155H60.6701L58.7865 57.8975H54.0915V56.4064C54.0915 56.0505 53.8031 55.7618 53.447 55.7618C53.0911 55.7618 52.8024 56.0505 52.8024 56.4064V57.8975H48.1074L46.2242 54.9155H47.0402C47.3964 54.9155 47.6848 54.6272 47.6848 54.271C47.6848 53.9148 47.3964 53.6265 47.0402 53.6265H45.4098L44.1257 51.5932V51.2353L52.4019 36.4074H52.8024V48.0351C51.977 48.3067 51.3787 49.0845 51.3787 49.9996C51.3787 51.1403 52.3066 52.0682 53.447 52.0682C54.5877 52.0682 55.5155 51.1403 55.5155 49.9996C55.5155 49.0845 54.9173 48.3064 54.0918 48.0351V36.4074H54.4923L62.7685 51.2353V51.5932Z" fill="white" stroke="white" stroke-width="2" mask="url(#path-3-inside-1)"/>
<defs>
<filter id="filter0_d" x="-2" y="0" width="110" height="110" filterUnits="userSpaceOnUse" color-interpolation-filters="sRGB">
<feFlood flood-opacity="0" result="BackgroundImageFix"/>
<feColorMatrix in="SourceAlpha" type="matrix" values="0 0 0 0 0 0 0 0 0 0 0 0 0 0 0 0 0 0 127 0"/>
<feOffset dy="5"/>
<feGaussianBlur stdDeviation="10"/>
<feColorMatrix type="matrix" values="0 0 0 0 0.890196 0 0 0 0 0.721569 0 0 0 0 0.45098 0 0 0 0.5 0"/>
<feBlend mode="normal" in2="BackgroundImageFix" result="effect1_dropShadow"/>
<feBlend mode="normal" in="SourceGraphic" in2="effect1_dropShadow" result="shape"/>
</filter>
</defs>
</svg>
