<svg width="357" height="489" viewBox="0 0 357 489" fill="none" xmlns="http://www.w3.org/2000/svg">
<mask id="mask0" mask-type="alpha" maskUnits="userSpaceOnUse" x="53" y="50" width="304" height="358">
<rect x="53" y="50" width="304" height="357.63" fill="#C4C4C4"/>
</mask>
<g mask="url(#mask0)">
<rect x="53" y="3" width="303.737" height="405"/>
</g>
<g filter="url(#filter0_d)">
<rect x="84" y="327" width="233" height="137" fill="white"/>
</g>
<rect x="84" y="420" width="233" height="44" fill="#E3B873"/>
<path d="M127.951 364.73L129.031 364.46V352.94L127.951 352.67V352.4H132.541C134.689 352.4 136.333 352.952 137.473 354.056C138.625 355.16 139.201 356.708 139.201 358.7C139.201 360.692 138.625 362.24 137.473 363.344C136.333 364.448 134.689 365 132.541 365H127.951V364.73ZM132.541 364.55C133.657 364.55 134.521 364.1 135.133 363.2C135.745 362.288 136.051 360.788 136.051 358.7C136.051 356.612 135.745 355.118 135.133 354.218C134.521 353.306 133.657 352.85 132.541 352.85H132.001V364.55H132.541ZM140.638 364.73L141.718 364.46V356.54L140.638 356.27V356H142.258C142.966 356 143.524 356.228 143.932 356.684C144.088 356.864 144.22 357.086 144.328 357.35C144.508 357.014 144.7 356.744 144.904 356.54C145.444 356 146.062 355.73 146.758 355.73C147.454 355.73 148.066 355.886 148.594 356.198C149.122 356.498 149.53 356.912 149.818 357.44C149.998 357.092 150.19 356.81 150.394 356.594C150.946 356.018 151.564 355.73 152.248 355.73C152.884 355.73 153.454 355.862 153.958 356.126C154.474 356.39 154.87 356.75 155.146 357.206C155.434 357.662 155.578 358.16 155.578 358.7V364.46L156.658 364.73V365H154.318C153.238 365 152.698 364.46 152.698 363.38V358.7C152.698 357.92 152.578 357.338 152.338 356.954C152.098 356.558 151.828 356.36 151.528 356.36C151.18 356.36 150.826 356.6 150.466 357.08C150.322 357.308 150.196 357.548 150.088 357.8V364.46L151.168 364.73V365H146.128V364.73L147.208 364.46V358.7C147.208 357.92 147.088 357.338 146.848 356.954C146.608 356.558 146.338 356.36 146.038 356.36C145.69 356.36 145.336 356.6 144.976 357.08C144.832 357.308 144.706 357.548 144.598 357.8V364.46L145.678 364.73V365H140.638V364.73ZM157.741 364.73L158.821 364.46V356.54L157.741 356.27V356H160.081C161.161 356 161.701 356.54 161.701 357.62V364.46L162.781 364.73V365H157.741V364.73ZM160.081 354.92C159.721 354.92 159.421 354.8 159.181 354.56C158.941 354.32 158.821 354.02 158.821 353.66C158.821 353.3 158.941 353 159.181 352.76C159.421 352.52 159.721 352.4 160.081 352.4C160.441 352.4 160.741 352.52 160.981 352.76C161.221 353 161.341 353.3 161.341 353.66C161.341 354.02 161.221 354.32 160.981 354.56C160.741 354.8 160.441 354.92 160.081 354.92ZM168.539 365.27C167.747 365.27 167.057 365.126 166.469 364.838C165.893 364.55 165.449 364.154 165.137 363.65C164.825 363.146 164.669 362.576 164.669 361.94V356.45H163.409V356H164.669V355.1C164.669 354.02 165.209 353.48 166.289 353.48H167.549V356H170.069V356.45H167.549V361.94C167.549 363.044 167.663 363.8 167.891 364.208C168.119 364.616 168.455 364.82 168.899 364.82C169.331 364.82 169.709 364.61 170.033 364.19C170.357 363.77 170.519 363.2 170.519 362.48H170.969C170.969 363.368 170.747 364.058 170.303 364.55C169.859 365.03 169.271 365.27 168.539 365.27ZM171.962 364.73L173.042 364.46V356.54L171.962 356.27V356H173.582C174.29 356 174.848 356.228 175.256 356.684C175.412 356.864 175.544 357.086 175.652 357.35C175.832 357.086 176.054 356.846 176.318 356.63C176.918 356.15 177.59 355.91 178.334 355.91C178.97 355.91 179.444 356.06 179.756 356.36C180.08 356.648 180.242 357.068 180.242 357.62C180.242 358.028 180.116 358.358 179.864 358.61C179.624 358.85 179.3 358.97 178.892 358.97C178.724 358.97 178.556 358.958 178.388 358.934L178.172 358.88V356.36C177.56 356.36 177.002 356.6 176.498 357.08C176.258 357.32 176.066 357.56 175.922 357.8V364.46L177.002 364.73V365H171.962V364.73ZM183.206 368.87C182.666 368.87 182.246 368.726 181.946 368.438C181.646 368.15 181.496 367.754 181.496 367.25C181.496 366.794 181.616 366.44 181.856 366.188C182.108 365.936 182.438 365.81 182.846 365.81C182.942 365.81 183.038 365.816 183.134 365.828C183.23 365.852 183.296 365.864 183.332 365.864L183.566 365.9V368.33C183.914 368.27 184.22 368.078 184.484 367.754C184.748 367.43 185.042 366.872 185.366 366.08L185.726 365.18L181.046 356.54L180.146 356.27V356H182.396C183.02 356 183.512 356.132 183.872 356.396C184.244 356.648 184.562 357.026 184.826 357.53L187.076 361.688L188.966 356.81L187.616 356.27V356H190.946V356.27L189.506 356.81L185.906 366.08C185.522 367.064 185.114 367.772 184.682 368.204C184.25 368.648 183.758 368.87 183.206 368.87ZM201.023 365.27C200.231 365.27 199.541 365.126 198.953 364.838C198.377 364.55 197.933 364.154 197.621 363.65C197.309 363.146 197.153 362.576 197.153 361.94V356.45H195.893V356H197.153V355.1C197.153 354.02 197.693 353.48 198.773 353.48H200.033V356H202.553V356.45H200.033V361.94C200.033 363.044 200.147 363.8 200.375 364.208C200.603 364.616 200.939 364.82 201.383 364.82C201.815 364.82 202.193 364.61 202.517 364.19C202.841 363.77 203.003 363.2 203.003 362.48H203.453C203.453 363.368 203.231 364.058 202.787 364.55C202.343 365.03 201.755 365.27 201.023 365.27ZM208.415 365.27C207.743 365.27 207.137 365.132 206.597 364.856C206.069 364.568 205.655 364.196 205.355 363.74C205.055 363.284 204.905 362.804 204.905 362.3V356.54L203.825 356.27V356H206.165C207.245 356 207.785 356.54 207.785 357.62V362.3C207.785 363.056 207.917 363.638 208.181 364.046C208.457 364.442 208.775 364.64 209.135 364.64C209.579 364.64 209.981 364.4 210.341 363.92C210.473 363.74 210.611 363.5 210.755 363.2V356.54L209.675 356.27V356H214.715V356.27L213.635 356.54V365.09H213.455C212.579 365.09 211.913 364.85 211.457 364.37C211.253 364.154 211.109 363.914 211.025 363.65C210.857 363.95 210.659 364.22 210.431 364.46C209.891 365 209.219 365.27 208.415 365.27ZM215.802 364.73L216.882 364.46V352.94L215.802 352.67V352.4H218.142C219.222 352.4 219.762 352.94 219.762 354.02V364.46L220.842 364.73V365H215.802V364.73ZM223.899 368.87C223.359 368.87 222.939 368.726 222.639 368.438C222.339 368.15 222.189 367.754 222.189 367.25C222.189 366.794 222.309 366.44 222.549 366.188C222.801 365.936 223.131 365.81 223.539 365.81C223.635 365.81 223.731 365.816 223.827 365.828C223.923 365.852 223.989 365.864 224.025 365.864L224.259 365.9V368.33C224.607 368.27 224.913 368.078 225.177 367.754C225.441 367.43 225.735 366.872 226.059 366.08L226.419 365.18L221.739 356.54L220.839 356.27V356H223.089C223.713 356 224.205 356.132 224.565 356.396C224.937 356.648 225.255 357.026 225.519 357.53L227.769 361.688L229.659 356.81L228.309 356.27V356H231.639V356.27L230.199 356.81L226.599 366.08C226.215 367.064 225.807 367.772 225.375 368.204C224.943 368.648 224.451 368.87 223.899 368.87ZM234.781 365.27C233.713 365.27 232.891 365.042 232.315 364.586C231.739 364.13 231.451 363.548 231.451 362.84C231.451 362.372 231.553 361.91 231.757 361.454C231.841 361.238 231.949 361.04 232.081 360.86C232.573 360.74 233.107 360.632 233.683 360.536C234.979 360.32 236.125 360.188 237.121 360.14V359.6C237.121 358.268 236.959 357.35 236.635 356.846C236.311 356.342 235.813 356.09 235.141 356.09C234.889 356.09 234.673 356.12 234.493 356.18L234.241 356.27V358.97L234.007 359.024C233.815 359.048 233.653 359.06 233.521 359.06C233.113 359.06 232.783 358.94 232.531 358.7C232.291 358.448 232.171 358.118 232.171 357.71C232.171 357.158 232.447 356.69 232.999 356.306C233.563 355.922 234.397 355.73 235.501 355.73C236.437 355.73 237.241 355.898 237.913 356.234C238.597 356.558 239.113 357.014 239.461 357.602C239.821 358.178 240.001 358.844 240.001 359.6V364.46L241.081 364.73V365H239.461C238.741 365 238.183 364.778 237.787 364.334C237.619 364.154 237.487 363.926 237.391 363.65C237.223 363.95 237.025 364.22 236.797 364.46C236.257 365 235.585 365.27 234.781 365.27ZM235.501 364.64C235.945 364.64 236.347 364.4 236.707 363.92C236.839 363.74 236.977 363.5 237.121 363.2V360.59C236.569 360.59 236.041 360.62 235.537 360.68C235.165 360.728 234.913 360.758 234.781 360.77C234.721 360.902 234.661 361.082 234.601 361.31C234.481 361.766 234.421 362.216 234.421 362.66C234.421 363.332 234.523 363.83 234.727 364.154C234.931 364.478 235.189 364.64 235.501 364.64ZM242.169 364.73L243.249 364.46V352.94L242.169 352.67V352.4H244.509C245.589 352.4 246.129 352.94 246.129 354.02V360.32L249.459 356.81L248.109 356.27V356H251.529V356.27L250.089 356.81L248.019 358.97L251.529 364.46L252.429 364.73V365H250.089C249.513 365 249.045 364.874 248.685 364.622C248.325 364.37 247.983 363.986 247.659 363.47L246.129 361.04V364.46L247.209 364.73V365H242.169V364.73ZM257.381 365.27C255.893 365.27 254.723 364.85 253.871 364.01C253.031 363.158 252.611 361.988 252.611 360.5C252.611 359.012 253.031 357.848 253.871 357.008C254.723 356.156 255.893 355.73 257.381 355.73C258.869 355.73 260.033 356.156 260.873 357.008C261.725 357.848 262.151 359.012 262.151 360.5C262.151 361.988 261.725 363.158 260.873 364.01C260.033 364.85 258.869 365.27 257.381 365.27ZM257.381 364.91C257.861 364.91 258.263 364.574 258.587 363.902C258.923 363.23 259.091 362.096 259.091 360.5C259.091 358.904 258.923 357.77 258.587 357.098C258.263 356.426 257.861 356.09 257.381 356.09C256.901 356.09 256.493 356.426 256.157 357.098C255.833 357.77 255.671 358.904 255.671 360.5C255.671 362.096 255.833 363.23 256.157 363.902C256.493 364.574 256.901 364.91 257.381 364.91ZM263.417 356.54L262.517 356.27V356H264.767C265.391 356 265.883 356.132 266.243 356.396C266.615 356.648 266.933 357.026 267.197 357.53L269.339 361.688L271.337 356.81L269.987 356.27V356H273.317V356.27L271.877 356.81L268.457 365.18H267.917L263.417 356.54Z" fill="#181818"/>
<path d="M145.007 379.994H147.185C148.553 379.994 149.561 380.276 150.209 380.84C150.941 381.464 151.307 382.322 151.307 383.414C151.307 384.35 150.989 385.148 150.353 385.808C149.729 386.456 148.781 386.78 147.509 386.78H146.339V392H145.007V379.994ZM146.339 381.254V385.52H147.437C148.229 385.52 148.847 385.328 149.291 384.944C149.747 384.56 149.975 384.026 149.975 383.342C149.975 381.95 149.093 381.254 147.329 381.254H146.339ZM152.892 392V384.53H154.188V385.34C154.608 384.68 155.172 384.35 155.88 384.35C156.24 384.35 156.624 384.452 157.032 384.656L156.42 385.826C156.18 385.658 155.928 385.574 155.664 385.574C155.208 385.574 154.86 385.73 154.62 386.042C154.332 386.426 154.188 387.098 154.188 388.058V392H152.892ZM164.097 391.1C163.353 391.844 162.411 392.216 161.271 392.216C160.131 392.216 159.183 391.844 158.427 391.1C157.683 390.356 157.311 389.42 157.311 388.292C157.311 387.152 157.683 386.21 158.427 385.466C159.183 384.722 160.131 384.35 161.271 384.35C162.411 384.35 163.353 384.722 164.097 385.466C164.853 386.21 165.231 387.152 165.231 388.292C165.231 389.42 164.853 390.356 164.097 391.1ZM163.125 386.24C162.621 385.748 162.003 385.502 161.271 385.502C160.539 385.502 159.915 385.754 159.399 386.258C158.895 386.75 158.643 387.428 158.643 388.292C158.643 389.156 158.901 389.834 159.417 390.326C159.933 390.818 160.551 391.064 161.271 391.064C161.991 391.064 162.609 390.818 163.125 390.326C163.641 389.834 163.899 389.156 163.899 388.292C163.899 387.416 163.641 386.732 163.125 386.24ZM167.218 384.53H168.514V396.212H167.218V384.53ZM167.218 382.352C167.038 382.172 166.948 381.956 166.948 381.704C166.948 381.452 167.038 381.236 167.218 381.056C167.398 380.876 167.614 380.786 167.866 380.786C168.118 380.786 168.334 380.876 168.514 381.056C168.694 381.236 168.784 381.452 168.784 381.704C168.784 381.956 168.694 382.172 168.514 382.352C168.334 382.532 168.118 382.622 167.866 382.622C167.614 382.622 167.398 382.532 167.218 382.352ZM176.506 389.498L177.586 390.092C177.334 390.572 177.028 390.974 176.668 391.298C175.984 391.91 175.156 392.216 174.184 392.216C173.176 392.216 172.306 391.892 171.574 391.244C170.854 390.584 170.494 389.606 170.494 388.31C170.494 387.17 170.818 386.228 171.466 385.484C172.126 384.728 173.008 384.35 174.112 384.35C175.36 384.35 176.302 384.806 176.938 385.718C177.442 386.438 177.676 387.374 177.64 388.526H171.826C171.838 389.282 172.072 389.894 172.528 390.362C172.984 390.83 173.542 391.064 174.202 391.064C174.79 391.064 175.3 390.884 175.732 390.524C176.068 390.236 176.326 389.894 176.506 389.498ZM171.916 387.446H176.308C176.2 386.858 175.942 386.39 175.534 386.042C175.138 385.682 174.664 385.502 174.112 385.502C173.572 385.502 173.092 385.688 172.672 386.06C172.264 386.42 172.012 386.882 171.916 387.446ZM185.478 385.07V386.618C184.89 385.874 184.11 385.502 183.138 385.502C182.406 385.502 181.782 385.754 181.266 386.258C180.75 386.75 180.492 387.428 180.492 388.292C180.492 389.156 180.75 389.834 181.266 390.326C181.782 390.818 182.4 391.064 183.12 391.064C184.08 391.064 184.884 390.674 185.532 389.894V391.442C184.824 391.958 184.032 392.216 183.156 392.216C181.992 392.216 181.032 391.85 180.276 391.118C179.532 390.374 179.16 389.438 179.16 388.31C179.16 387.17 179.538 386.228 180.294 385.484C181.05 384.728 182.004 384.35 183.156 384.35C184.02 384.35 184.794 384.59 185.478 385.07ZM190.149 385.718H188.853V392H187.557V385.718H186.765V384.53H187.557V381.83H188.853V384.53H190.149V385.718ZM195.572 392V384.53H196.868V385.322C197.312 384.674 197.93 384.35 198.722 384.35C199.634 384.35 200.318 384.752 200.774 385.556C201.29 384.752 202.04 384.35 203.024 384.35C204.644 384.35 205.454 385.322 205.454 387.266V392H204.158V387.464C204.158 387.104 204.134 386.804 204.086 386.564C204.05 386.312 203.924 386.072 203.708 385.844C203.504 385.616 203.21 385.502 202.826 385.502C201.722 385.502 201.17 386.282 201.17 387.842V392H199.874V387.572C199.874 386.192 199.418 385.502 198.506 385.502C197.414 385.502 196.868 386.312 196.868 387.932V392H195.572ZM213.618 385.592V384.53H214.914V392H213.618V390.956C212.97 391.796 212.118 392.216 211.062 392.216C210.054 392.216 209.196 391.868 208.488 391.172C207.78 390.476 207.426 389.504 207.426 388.256C207.426 387.032 207.774 386.078 208.47 385.394C209.178 384.698 210.042 384.35 211.062 384.35C212.142 384.35 212.994 384.764 213.618 385.592ZM211.206 385.502C210.522 385.502 209.94 385.748 209.46 386.24C208.992 386.72 208.758 387.392 208.758 388.256C208.758 389.084 208.974 389.762 209.406 390.29C209.85 390.806 210.45 391.064 211.206 391.064C211.962 391.064 212.562 390.794 213.006 390.254C213.462 389.714 213.69 389.054 213.69 388.274C213.69 387.386 213.438 386.702 212.934 386.222C212.43 385.742 211.854 385.502 211.206 385.502ZM217.369 392V384.53H218.665V385.394C219.193 384.698 219.907 384.35 220.807 384.35C221.767 384.35 222.481 384.692 222.949 385.376C223.237 385.796 223.381 386.462 223.381 387.374V392H222.085V387.41C222.085 386.798 221.971 386.342 221.743 386.042C221.467 385.682 221.059 385.502 220.519 385.502C219.967 385.502 219.529 385.694 219.205 386.078C218.845 386.498 218.665 387.17 218.665 388.094V392H217.369ZM231.548 385.592V384.53H232.844V392H231.548V390.956C230.9 391.796 230.048 392.216 228.992 392.216C227.984 392.216 227.126 391.868 226.418 391.172C225.71 390.476 225.356 389.504 225.356 388.256C225.356 387.032 225.704 386.078 226.4 385.394C227.108 384.698 227.972 384.35 228.992 384.35C230.072 384.35 230.924 384.764 231.548 385.592ZM229.136 385.502C228.452 385.502 227.87 385.748 227.39 386.24C226.922 386.72 226.688 387.392 226.688 388.256C226.688 389.084 226.904 389.762 227.336 390.29C227.78 390.806 228.38 391.064 229.136 391.064C229.892 391.064 230.492 390.794 230.936 390.254C231.392 389.714 231.62 389.054 231.62 388.274C231.62 387.386 231.368 386.702 230.864 386.222C230.36 385.742 229.784 385.502 229.136 385.502ZM241.022 385.592V384.53H242.318V391.838C242.318 393.146 242.078 394.124 241.598 394.772C240.914 395.696 239.918 396.158 238.61 396.158C237.506 396.158 236.618 395.822 235.946 395.15C235.298 394.502 234.974 393.698 234.974 392.738H236.252C236.252 393.338 236.444 393.854 236.828 394.286C237.26 394.766 237.86 395.006 238.628 395.006C239.528 395.006 240.188 394.658 240.608 393.962C240.884 393.518 241.022 392.882 241.022 392.054V390.956C240.374 391.796 239.522 392.216 238.466 392.216C237.458 392.216 236.6 391.868 235.892 391.172C235.184 390.476 234.83 389.504 234.83 388.256C234.83 387.032 235.178 386.078 235.874 385.394C236.582 384.698 237.446 384.35 238.466 384.35C239.546 384.35 240.398 384.764 241.022 385.592ZM238.61 385.502C237.926 385.502 237.344 385.748 236.864 386.24C236.396 386.72 236.162 387.392 236.162 388.256C236.162 389.084 236.378 389.762 236.81 390.29C237.254 390.806 237.854 391.064 238.61 391.064C239.366 391.064 239.966 390.794 240.41 390.254C240.866 389.714 241.094 389.054 241.094 388.274C241.094 387.386 240.842 386.702 240.338 386.222C239.834 385.742 239.258 385.502 238.61 385.502ZM250.317 389.498L251.397 390.092C251.145 390.572 250.839 390.974 250.479 391.298C249.795 391.91 248.967 392.216 247.995 392.216C246.987 392.216 246.117 391.892 245.385 391.244C244.665 390.584 244.305 389.606 244.305 388.31C244.305 387.17 244.629 386.228 245.277 385.484C245.937 384.728 246.819 384.35 247.923 384.35C249.171 384.35 250.113 384.806 250.749 385.718C251.253 386.438 251.487 387.374 251.451 388.526H245.637C245.649 389.282 245.883 389.894 246.339 390.362C246.795 390.83 247.353 391.064 248.013 391.064C248.601 391.064 249.111 390.884 249.543 390.524C249.879 390.236 250.137 389.894 250.317 389.498ZM245.727 387.446H250.119C250.011 386.858 249.753 386.39 249.345 386.042C248.949 385.682 248.475 385.502 247.923 385.502C247.383 385.502 246.903 385.688 246.483 386.06C246.075 386.42 245.823 386.882 245.727 387.446ZM253.439 392V384.53H254.735V385.34C255.155 384.68 255.719 384.35 256.427 384.35C256.787 384.35 257.171 384.452 257.579 384.656L256.967 385.826C256.727 385.658 256.475 385.574 256.211 385.574C255.755 385.574 255.407 385.73 255.167 386.042C254.879 386.426 254.735 387.098 254.735 388.058V392H253.439Z" fill="#959595"/>
<path d="M108.59 436.225L107.875 436.095V435.9H109.435C109.895 435.9 110.272 436.004 110.566 436.212C110.861 436.42 111.069 436.684 111.19 437.005L113.153 442.01L114.297 438.656L113.335 436.225L112.62 436.095V435.9H114.18C114.64 435.9 115.012 436.004 115.298 436.212C115.584 436.411 115.797 436.676 115.935 437.005L117.898 442.01L119.77 436.485L118.795 436.095V435.9H121.2V436.095L120.16 436.485L117.235 445.13H116.845L114.505 439.189L112.49 445.13H112.1L108.59 436.225ZM125.361 445.195C124.512 445.195 123.767 445.013 123.125 444.649C122.493 444.276 122.003 443.735 121.656 443.024C121.31 442.313 121.136 441.455 121.136 440.45C121.136 439.445 121.31 438.587 121.656 437.876C122.003 437.165 122.493 436.628 123.125 436.264C123.767 435.891 124.512 435.705 125.361 435.705C126.211 435.705 126.952 435.891 127.584 436.264C128.226 436.628 128.72 437.165 129.066 437.876C129.413 438.587 129.586 439.445 129.586 440.45C129.586 441.455 129.413 442.313 129.066 443.024C128.72 443.735 128.226 444.276 127.584 444.649C126.952 445.013 126.211 445.195 125.361 445.195ZM125.361 444.935C125.699 444.935 126.011 444.792 126.297 444.506C126.592 444.22 126.835 443.743 127.025 443.076C127.216 442.409 127.311 441.533 127.311 440.45C127.311 439.367 127.216 438.491 127.025 437.824C126.835 437.157 126.592 436.68 126.297 436.394C126.011 436.108 125.699 435.965 125.361 435.965C125.023 435.965 124.707 436.108 124.412 436.394C124.126 436.68 123.888 437.157 123.697 437.824C123.507 438.491 123.411 439.367 123.411 440.45C123.411 441.533 123.507 442.409 123.697 443.076C123.888 443.743 124.126 444.22 124.412 444.506C124.707 444.792 125.023 444.935 125.361 444.935ZM130.824 444.805L131.604 444.61V436.29L130.824 436.095V435.9H134.269C135.743 435.9 136.804 436.125 137.454 436.576C138.104 437.018 138.429 437.638 138.429 438.435C138.429 438.972 138.286 439.41 138 439.748C137.714 440.077 137.346 440.324 136.895 440.489C136.419 440.671 135.912 440.766 135.374 440.775V440.84C135.695 440.857 135.977 440.905 136.219 440.983C136.826 441.174 137.238 441.516 137.454 442.01L138.624 444.61L139.274 444.805V445H137.454C136.744 445 136.224 444.632 135.894 443.895L134.594 440.97H133.749V444.61L134.659 444.805V445H130.824V444.805ZM134.269 440.645C134.876 440.645 135.353 440.454 135.699 440.073C136.046 439.692 136.219 439.146 136.219 438.435C136.219 437.724 136.046 437.178 135.699 436.797C135.353 436.416 134.876 436.225 134.269 436.225H133.749V440.645H134.269ZM139.927 444.805L140.707 444.61V436.29L139.927 436.095V435.9H143.632V436.095L142.852 436.29V440.372L146.037 436.485L145.062 436.095V435.9H147.532V436.095L146.492 436.485L144.217 439.28L147.727 444.61L148.377 444.805V445H146.557C146.167 445 145.833 444.905 145.556 444.714C145.287 444.515 145.036 444.242 144.802 443.895L142.852 440.905V444.61L143.632 444.805V445H139.927V444.805ZM152.546 444.805L153.326 444.61V436.29L152.546 436.095V435.9H159.501V438.24H159.111C158.946 438.11 158.803 437.945 158.682 437.746C158.405 437.278 158.266 436.771 158.266 436.225H155.471V440.32H156.966C157.027 439.991 157.139 439.683 157.304 439.397C157.373 439.267 157.456 439.141 157.551 439.02H157.941V441.945H157.551C157.456 441.824 157.373 441.698 157.304 441.568C157.139 441.282 157.027 440.974 156.966 440.645H155.471V444.675H158.526C158.526 444.129 158.665 443.622 158.942 443.154C159.063 442.955 159.206 442.79 159.371 442.66H159.761V445H152.546V444.805ZM160.47 444.805L161.51 444.415L163.72 441.152L160.86 436.29L160.21 436.095V435.9H162.095C162.528 435.9 162.871 435.991 163.122 436.173C163.382 436.355 163.625 436.632 163.85 437.005L165.098 439.137L166.905 436.485L165.93 436.095V435.9H168.4V436.095L167.36 436.485L165.319 439.488L168.335 444.61L168.985 444.805V445H167.1C166.675 445 166.333 444.909 166.073 444.727C165.813 444.545 165.57 444.268 165.345 443.895L163.941 441.516L161.965 444.415L162.94 444.805V445H160.47V444.805ZM169.57 444.805L170.35 444.61V436.29L169.57 436.095V435.9H173.21C174.649 435.9 175.68 436.138 176.304 436.615C176.928 437.083 177.24 437.776 177.24 438.695C177.24 439.614 176.928 440.311 176.304 440.788C175.68 441.256 174.649 441.49 173.21 441.49H172.495V444.61L173.275 444.805V445H169.57V444.805ZM173.21 441.165C173.756 441.165 174.194 440.957 174.523 440.541C174.861 440.125 175.03 439.51 175.03 438.695C175.03 437.889 174.861 437.278 174.523 436.862C174.194 436.437 173.756 436.225 173.21 436.225H172.495V441.165H173.21ZM178.343 444.805L179.123 444.61V436.29L178.343 436.095V435.9H185.298V438.24H184.908C184.743 438.11 184.6 437.945 184.479 437.746C184.202 437.278 184.063 436.771 184.063 436.225H181.268V440.32H182.763C182.824 439.991 182.936 439.683 183.101 439.397C183.17 439.267 183.253 439.141 183.348 439.02H183.738V441.945H183.348C183.253 441.824 183.17 441.698 183.101 441.568C182.936 441.282 182.824 440.974 182.763 440.645H181.268V444.675H184.323C184.323 444.129 184.462 443.622 184.739 443.154C184.86 442.955 185.003 442.79 185.168 442.66H185.558V445H178.343V444.805ZM186.722 444.805L187.502 444.61V436.29L186.722 436.095V435.9H190.167C191.64 435.9 192.702 436.125 193.352 436.576C194.002 437.018 194.327 437.638 194.327 438.435C194.327 438.972 194.184 439.41 193.898 439.748C193.612 440.077 193.243 440.324 192.793 440.489C192.316 440.671 191.809 440.766 191.272 440.775V440.84C191.592 440.857 191.874 440.905 192.117 440.983C192.723 441.174 193.135 441.516 193.352 442.01L194.522 444.61L195.172 444.805V445H193.352C192.641 445 192.121 444.632 191.792 443.895L190.492 440.97H189.647V444.61L190.557 444.805V445H186.722V444.805ZM190.167 440.645C190.773 440.645 191.25 440.454 191.597 440.073C191.943 439.692 192.117 439.146 192.117 438.435C192.117 437.724 191.943 437.178 191.597 436.797C191.25 436.416 190.773 436.225 190.167 436.225H189.647V440.645H190.167ZM195.824 445V444.805L196.604 444.61V436.29L195.824 436.095V435.9H199.529V436.095L198.749 436.29V444.61L199.529 444.805V445H195.824ZM200.699 444.805L201.479 444.61V436.29L200.699 436.095V435.9H207.654V438.24H207.264C207.1 438.11 206.957 437.945 206.835 437.746C206.558 437.278 206.419 436.771 206.419 436.225H203.624V440.32H205.119C205.18 439.991 205.293 439.683 205.457 439.397C205.527 439.267 205.609 439.141 205.704 439.02H206.094V441.945H205.704C205.609 441.824 205.527 441.698 205.457 441.568C205.293 441.282 205.18 440.974 205.119 440.645H203.624V444.675H206.679C206.679 444.129 206.818 443.622 207.095 443.154C207.217 442.955 207.36 442.79 207.524 442.66H207.914V445H200.699V444.805ZM210.248 438.11V444.415L211.288 444.805V445H208.818V444.805L209.858 444.415V436.355L208.948 436.095V435.9H210.313C210.773 435.9 211.132 435.982 211.392 436.147C211.652 436.312 211.899 436.533 212.133 436.81L216.293 441.685V436.485L215.253 436.095V435.9H217.723V436.095L216.683 436.485V445.195H216.293L210.248 438.11ZM223.056 445.195C221.67 445.195 220.586 444.783 219.806 443.96C219.026 443.137 218.636 441.967 218.636 440.45C218.636 439.453 218.805 438.6 219.143 437.889C219.49 437.17 219.971 436.628 220.586 436.264C221.21 435.891 221.93 435.705 222.744 435.705C223.238 435.705 223.737 435.848 224.239 436.134C224.43 436.238 224.621 436.377 224.811 436.55C224.959 436.325 225.11 436.147 225.266 436.017C225.422 435.904 225.509 435.844 225.526 435.835H225.851V438.305H225.331C225.219 437.889 225.05 437.512 224.824 437.174C224.616 436.845 224.356 436.572 224.044 436.355C223.741 436.138 223.39 436.03 222.991 436.03C222.393 436.03 221.895 436.377 221.496 437.07C221.106 437.763 220.911 438.89 220.911 440.45C220.911 442.036 221.124 443.171 221.548 443.856C221.982 444.532 222.571 444.87 223.316 444.87C223.724 444.87 224.109 444.757 224.473 444.532C224.846 444.298 225.145 443.99 225.37 443.609C225.604 443.228 225.721 442.825 225.721 442.4H226.046C226.046 442.894 225.912 443.358 225.643 443.791C225.383 444.216 225.024 444.558 224.564 444.818C224.114 445.069 223.611 445.195 223.056 445.195ZM227.156 444.805L227.936 444.61V436.29L227.156 436.095V435.9H234.111V438.24H233.721C233.557 438.11 233.414 437.945 233.292 437.746C233.015 437.278 232.876 436.771 232.876 436.225H230.081V440.32H231.576C231.637 439.991 231.75 439.683 231.914 439.397C231.984 439.267 232.066 439.141 232.161 439.02H232.551V441.945H232.161C232.066 441.824 231.984 441.698 231.914 441.568C231.75 441.282 231.637 440.974 231.576 440.645H230.081V444.675H233.136C233.136 444.129 233.275 443.622 233.552 443.154C233.674 442.955 233.817 442.79 233.981 442.66H234.371V445H227.156V444.805ZM242.364 445.195C241.272 445.195 240.444 444.978 239.881 444.545C239.326 444.112 239.049 443.548 239.049 442.855C239.049 442.378 239.257 441.919 239.673 441.477C240.089 441.026 240.596 440.706 241.194 440.515C240.622 440.194 240.184 439.843 239.881 439.462C239.586 439.072 239.439 438.6 239.439 438.045C239.439 437.352 239.716 436.788 240.271 436.355C240.834 435.922 241.662 435.705 242.754 435.705C243.3 435.705 243.776 435.805 244.184 436.004C244.6 436.203 244.92 436.463 245.146 436.784C245.371 437.105 245.484 437.438 245.484 437.785C245.484 438.192 245.306 438.587 244.951 438.968C244.604 439.349 244.197 439.605 243.729 439.735C244.517 440.082 245.115 440.493 245.523 440.97C245.93 441.447 246.134 442.032 246.134 442.725C246.134 443.176 245.995 443.587 245.718 443.96C245.44 444.333 245.02 444.632 244.457 444.857C243.893 445.082 243.196 445.195 242.364 445.195ZM243.339 439.475C243.668 439.328 243.932 439.115 244.132 438.838C244.34 438.561 244.444 438.21 244.444 437.785C244.444 437.473 244.366 437.183 244.21 436.914C244.062 436.645 243.867 436.433 243.625 436.277C243.391 436.112 243.144 436.03 242.884 436.03C242.511 436.03 242.199 436.177 241.948 436.472C241.705 436.758 241.584 437.152 241.584 437.655C241.584 438.348 242.169 438.955 243.339 439.475ZM242.234 444.87C242.788 444.87 243.217 444.718 243.521 444.415C243.833 444.103 243.989 443.67 243.989 443.115C243.989 442.699 243.781 442.279 243.365 441.854C242.949 441.429 242.398 441.07 241.714 440.775C241.228 440.948 240.847 441.208 240.57 441.555C240.292 441.893 240.154 442.326 240.154 442.855C240.154 443.219 240.245 443.557 240.427 443.869C240.617 444.172 240.869 444.415 241.181 444.597C241.501 444.779 241.852 444.87 242.234 444.87ZM252.705 444.805L253.485 444.61V441.62L250.82 436.29L250.17 436.095V435.9H251.795C252.246 435.9 252.606 435.995 252.874 436.186C253.152 436.377 253.377 436.65 253.55 437.005L255.474 440.84L257.45 436.485L256.475 436.095V435.9H258.945V436.095L257.905 436.485L255.63 441.49V444.61L256.41 444.805V445H252.705V444.805ZM259.466 444.805L260.246 444.61V436.29L259.466 436.095V435.9H266.421V438.24H266.031C265.866 438.11 265.723 437.945 265.602 437.746C265.325 437.278 265.186 436.771 265.186 436.225H262.391V440.32H263.886C263.947 439.991 264.059 439.683 264.224 439.397C264.293 439.267 264.376 439.141 264.471 439.02H264.861V441.945H264.471C264.376 441.824 264.293 441.698 264.224 441.568C264.059 441.282 263.947 440.974 263.886 440.645H262.391V444.675H265.446C265.446 444.129 265.585 443.622 265.862 443.154C265.983 442.955 266.126 442.79 266.291 442.66H266.681V445H259.466V444.805ZM266.935 444.805L267.975 444.415L271.55 435.77H271.94L275.645 444.61L276.295 444.805V445H274.735C274.284 445 273.916 444.9 273.63 444.701C273.344 444.493 273.131 444.224 272.993 443.895L272.33 442.335H269.223L268.365 444.415L269.34 444.805V445H266.935V444.805ZM269.353 442.01H272.2L270.77 438.591L269.353 442.01ZM276.681 444.805L277.461 444.61V436.29L276.681 436.095V435.9H280.126C281.599 435.9 282.661 436.125 283.311 436.576C283.961 437.018 284.286 437.638 284.286 438.435C284.286 438.972 284.143 439.41 283.857 439.748C283.571 440.077 283.202 440.324 282.752 440.489C282.275 440.671 281.768 440.766 281.231 440.775V440.84C281.551 440.857 281.833 440.905 282.076 440.983C282.682 441.174 283.094 441.516 283.311 442.01L284.481 444.61L285.131 444.805V445H283.311C282.6 445 282.08 444.632 281.751 443.895L280.451 440.97H279.606V444.61L280.516 444.805V445H276.681V444.805ZM280.126 440.645C280.732 440.645 281.209 440.454 281.556 440.073C281.902 439.692 282.076 439.146 282.076 438.435C282.076 437.724 281.902 437.178 281.556 436.797C281.209 436.416 280.732 436.225 280.126 436.225H279.606V440.645H280.126ZM288.968 445.195C288.353 445.195 287.777 445.056 287.239 444.779C286.997 444.658 286.793 444.515 286.628 444.35C286.507 444.549 286.355 444.727 286.173 444.883C286.017 444.996 285.931 445.056 285.913 445.065H285.588V442.595H286.108C286.238 443.02 286.42 443.401 286.654 443.739C287.183 444.493 287.868 444.87 288.708 444.87C289.202 444.87 289.597 444.723 289.891 444.428C290.186 444.133 290.333 443.739 290.333 443.245C290.333 442.959 290.247 442.703 290.073 442.478C289.909 442.253 289.701 442.053 289.449 441.88C289.198 441.707 288.847 441.49 288.396 441.23C287.824 440.909 287.361 440.619 287.005 440.359C286.65 440.099 286.347 439.774 286.095 439.384C285.844 438.985 285.718 438.517 285.718 437.98C285.718 437.555 285.835 437.174 286.069 436.836C286.312 436.489 286.672 436.216 287.148 436.017C287.625 435.809 288.21 435.705 288.903 435.705C289.406 435.705 289.909 435.848 290.411 436.134C290.602 436.238 290.793 436.377 290.983 436.55C291.131 436.325 291.282 436.147 291.438 436.017C291.594 435.904 291.681 435.844 291.698 435.835H292.023V438.305H291.503C291.391 437.889 291.222 437.512 290.996 437.174C290.788 436.845 290.528 436.572 290.216 436.355C289.913 436.138 289.562 436.03 289.163 436.03C288.825 436.03 288.535 436.164 288.292 436.433C288.05 436.702 287.928 437.044 287.928 437.46C287.928 437.781 288.019 438.071 288.201 438.331C288.392 438.582 288.622 438.803 288.89 438.994C289.168 439.185 289.54 439.414 290.008 439.683C290.554 439.995 290.996 440.272 291.334 440.515C291.672 440.758 291.958 441.061 292.192 441.425C292.426 441.78 292.543 442.192 292.543 442.66C292.543 443.128 292.409 443.557 292.14 443.947C291.872 444.328 291.469 444.632 290.931 444.857C290.394 445.082 289.74 445.195 288.968 445.195Z" fill="white"/>
<g filter="url(#filter1_d)">
<rect x="18" y="15" width="70" height="70" fill="#E3B873"/>
</g>
<g clip-path="url(#clip0)">
<path d="M55.3697 28C46.3791 28 39.0647 35.3144 39.0647 44.305V46.9788L34.5248 54.7924C34.4677 54.8907 34.4375 55.0025 34.4375 55.1163V57.83C34.4375 58.1862 34.7262 58.4746 35.082 58.4746H39.0647L39.065 62.8131C39.065 64.7386 40.6314 66.305 42.5569 66.305H43.8681C44.224 66.305 44.5123 66.0163 44.5123 65.6604C44.5123 65.3043 44.224 65.0159 43.8678 65.0159H42.5569C41.342 65.0159 40.3541 64.0276 40.3541 62.8131V58.4746H42.2007C42.5566 58.4746 42.8453 58.1862 42.8453 57.83V53.559C42.8453 53.2032 42.5566 52.9145 42.2007 52.9145H40.7771C40.4209 52.9145 40.1325 53.2032 40.1325 53.559C40.1325 53.9152 40.4209 54.2036 40.7771 54.2036H41.5562V57.1855H35.7266V55.6272H37.9294C38.2852 55.6272 38.5739 55.3385 38.5739 54.9827C38.5739 54.6265 38.2852 54.3382 37.9294 54.3382H36.2798L40.2581 47.4907C40.3188 47.392 40.3538 47.2762 40.3538 47.1526V44.305C40.3538 36.0254 47.0898 29.2891 55.3697 29.2891C63.6499 29.2891 70.3859 36.0254 70.3859 44.305V49.9997C70.3859 56.1929 66.6822 61.6543 60.9402 63.9477H59.2849C58.9287 63.9477 58.6403 64.2361 58.6403 64.5923C58.6403 64.9484 58.9287 65.2368 59.2849 65.2368H60.4202V70.7109H48.54V66.305H50.0308C50.387 66.305 50.6753 66.0166 50.6753 65.6604C50.6753 65.3046 50.387 65.0159 50.0308 65.0159H47.8971H47.8954H46.4503C46.0945 65.0159 45.8058 65.3043 45.8058 65.6604C45.8058 66.0163 46.0945 66.305 46.4503 66.305H47.2509V71.3555C47.2509 71.7116 47.5396 72 47.8954 72H61.0647C61.4205 72 61.7092 71.7116 61.7092 71.3555V65.026C64.5559 63.8249 66.9883 61.8523 68.7642 59.2997C70.6682 56.5621 71.675 53.3465 71.675 49.9997V44.305C71.675 35.3144 64.3605 28 55.3697 28Z" fill="white"/>
<path d="M46.885 43.5933C46.885 45.3329 47.408 47.0043 48.398 48.4273C49.2798 49.6949 50.4729 50.6869 51.8677 51.3173V52.6476H51.8006C51.4444 52.6476 51.156 52.936 51.156 53.2922C51.156 53.648 51.4444 53.9367 51.8006 53.9367H51.8677V55.6947C51.8677 56.0506 52.1564 56.3393 52.5122 56.3393H52.5797V57.8304C52.5797 58.1862 52.8684 58.4749 53.2242 58.4749H57.4953C57.8511 58.4749 58.1398 58.1862 58.1398 57.8304V56.3393H58.2073C58.5631 56.3393 58.8518 56.0506 58.8518 55.6947V53.9367H58.9189C59.2751 53.9367 59.5635 53.648 59.5635 53.2922C59.5635 52.936 59.2751 52.6476 58.9189 52.6476H58.8518V51.3173C60.2466 50.6869 61.4397 49.6949 62.3215 48.4273C63.3112 47.0043 63.8345 45.3329 63.8345 43.5933C63.8345 38.9201 60.0328 35.1184 55.3596 35.1184C50.6867 35.1184 46.885 38.9201 46.885 43.5933ZM53.8688 45.6615H54.381L55.6157 46.8965C55.7366 47.0174 55.9007 47.0855 56.0716 47.0855C56.2425 47.0855 56.4066 47.0174 56.5275 46.8965L56.8507 46.5733V50.2451H53.8688V45.6615ZM56.8507 57.1859H53.8688V56.3393H56.8507V57.1859ZM57.5627 55.0502H53.1568V53.9367H57.5627V55.0502ZM53.1568 52.6476V51.5341H57.5627V52.6476H53.1568ZM55.3599 36.4075C59.3221 36.4075 62.5454 39.6311 62.5454 43.5933C62.5454 46.5155 60.822 49.0967 58.1398 50.2202V45.017C58.1398 45.017 58.1398 45.017 58.1398 45.0167V44.305C58.1398 43.9492 57.8511 43.6605 57.4953 43.6605C57.1391 43.6605 56.8507 43.9492 56.8507 44.305V44.7501L56.0716 45.5293L55.1038 44.5611C54.9829 44.4403 54.8188 44.3725 54.6479 44.3725H53.8688V44.305C53.8688 43.9492 53.5804 43.6605 53.2242 43.6605C52.8684 43.6605 52.5797 43.9492 52.5797 44.305V50.2202C49.8975 49.0967 48.1741 46.5155 48.1741 43.5933C48.1741 39.6311 51.3974 36.4075 55.3599 36.4075Z" fill="white"/>
<path d="M56.0042 33.6272V31.4918C56.0042 31.1357 55.7158 30.8473 55.3596 30.8473C55.0038 30.8473 54.7151 31.1357 54.7151 31.4918V33.6272C54.7151 33.9833 55.0038 34.2717 55.3596 34.2717C55.7158 34.2717 56.0042 33.9833 56.0042 33.6272Z" fill="white"/>
<path d="M47.1955 34.6064C46.9438 34.355 46.5356 34.355 46.2838 34.6064C46.0324 34.8582 46.0324 35.2664 46.2838 35.5182L47.7941 37.0281C47.92 37.154 48.0848 37.2171 48.2499 37.2171C48.4148 37.2171 48.5796 37.154 48.7055 37.0281C48.9573 36.7763 48.9573 36.3685 48.7055 36.1167L47.1955 34.6064Z" fill="white"/>
<path d="M45.3049 43.0377H43.1692C42.8134 43.0377 42.5247 43.3264 42.5247 43.6823C42.5247 44.0384 42.8134 44.3268 43.1692 44.3268H45.3049C45.6607 44.3268 45.9494 44.0384 45.9494 43.6823C45.9494 43.3264 45.6607 43.0377 45.3049 43.0377Z" fill="white"/>
<path d="M47.7944 50.3364L46.2842 51.8467C46.0324 52.0985 46.0324 52.5063 46.2842 52.7581C46.41 52.884 46.5749 52.9468 46.7397 52.9468C46.9049 52.9468 47.0697 52.884 47.1956 52.7581L48.7059 51.2481C48.9576 50.9964 48.9576 50.5882 48.7059 50.3364C48.4541 50.0846 48.0459 50.085 47.7944 50.3364Z" fill="white"/>
<path d="M62.014 50.3364C61.7623 50.5882 61.7623 50.996 62.014 51.2478L63.524 52.7581C63.6499 52.884 63.815 52.9468 63.9798 52.9468C64.1447 52.9468 64.3098 52.884 64.4357 52.7581C64.6875 52.5063 64.6875 52.0981 64.4357 51.8464L62.9254 50.3364C62.6737 50.0846 62.2658 50.0846 62.014 50.3364Z" fill="white"/>
<path d="M67.5504 44.3268C67.9065 44.3268 68.1949 44.0381 68.1949 43.6823C68.1949 43.3261 67.9065 43.0377 67.5504 43.0377H65.4147C65.0585 43.0377 64.7701 43.3261 64.7701 43.6823C64.7701 44.0381 65.0585 44.3268 65.4147 44.3268H67.5504Z" fill="white"/>
<path d="M63.524 34.6064L62.0137 36.1167C61.7623 36.3685 61.7623 36.7764 62.0141 37.0281C62.1396 37.154 62.3048 37.2168 62.4696 37.2168C62.6344 37.2168 62.7996 37.154 62.9255 37.0281L64.4354 35.5178C64.6872 35.2661 64.6872 34.8582 64.4354 34.6064C64.184 34.3547 63.7758 34.3547 63.524 34.6064Z" fill="white"/>
</g>
<defs>
<filter id="filter0_d" x="69" y="322" width="263" height="167" filterUnits="userSpaceOnUse" color-interpolation-filters="sRGB">
<feFlood flood-opacity="0" result="BackgroundImageFix"/>
<feColorMatrix in="SourceAlpha" type="matrix" values="0 0 0 0 0 0 0 0 0 0 0 0 0 0 0 0 0 0 127 0"/>
<feOffset dy="10"/>
<feGaussianBlur stdDeviation="7.5"/>
<feColorMatrix type="matrix" values="0 0 0 0 0 0 0 0 0 0 0 0 0 0 0 0 0 0 0.05 0"/>
<feBlend mode="normal" in2="BackgroundImageFix" result="effect1_dropShadow"/>
<feBlend mode="normal" in="SourceGraphic" in2="effect1_dropShadow" result="shape"/>
</filter>
<filter id="filter1_d" x="-2" y="0" width="110" height="110" filterUnits="userSpaceOnUse" color-interpolation-filters="sRGB">
<feFlood flood-opacity="0" result="BackgroundImageFix"/>
<feColorMatrix in="SourceAlpha" type="matrix" values="0 0 0 0 0 0 0 0 0 0 0 0 0 0 0 0 0 0 127 0"/>
<feOffset dy="5"/>
<feGaussianBlur stdDeviation="10"/>
<feColorMatrix type="matrix" values="0 0 0 0 0.890196 0 0 0 0 0.721569 0 0 0 0 0.45098 0 0 0 0.5 0"/>
<feBlend mode="normal" in2="BackgroundImageFix" result="effect1_dropShadow"/>
<feBlend mode="normal" in="SourceGraphic" in2="effect1_dropShadow" result="shape"/>
</filter>
<clipPath id="clip0">
<rect width="44" height="44" fill="white" transform="translate(31 28)"/>
</clipPath>
</defs>
</svg>
