<svg width="108" height="110" viewBox="0 0 108 110" fill="none" xmlns="http://www.w3.org/2000/svg">
<g filter="url(#filter0_d)">
<rect x="18" y="15" width="70" height="70" fill="#E3B873"/>
</g>
<g clip-path="url(#clip0)">
<path d="M55.3697 28C46.3791 28 39.0647 35.3144 39.0647 44.305V46.9788L34.5248 54.7924C34.4677 54.8907 34.4375 55.0025 34.4375 55.1163V57.83C34.4375 58.1862 34.7262 58.4746 35.082 58.4746H39.0647L39.065 62.8131C39.065 64.7386 40.6314 66.305 42.5569 66.305H43.8681C44.224 66.305 44.5123 66.0163 44.5123 65.6604C44.5123 65.3043 44.224 65.0159 43.8678 65.0159H42.5569C41.342 65.0159 40.3541 64.0276 40.3541 62.8131V58.4746H42.2007C42.5566 58.4746 42.8453 58.1862 42.8453 57.83V53.559C42.8453 53.2032 42.5566 52.9145 42.2007 52.9145H40.7771C40.4209 52.9145 40.1325 53.2032 40.1325 53.559C40.1325 53.9152 40.4209 54.2036 40.7771 54.2036H41.5562V57.1855H35.7266V55.6272H37.9294C38.2852 55.6272 38.5739 55.3385 38.5739 54.9827C38.5739 54.6265 38.2852 54.3382 37.9294 54.3382H36.2798L40.2581 47.4907C40.3188 47.392 40.3538 47.2762 40.3538 47.1526V44.305C40.3538 36.0254 47.0898 29.2891 55.3697 29.2891C63.6499 29.2891 70.3859 36.0254 70.3859 44.305V49.9997C70.3859 56.1929 66.6822 61.6543 60.9402 63.9477H59.2849C58.9287 63.9477 58.6403 64.2361 58.6403 64.5923C58.6403 64.9484 58.9287 65.2368 59.2849 65.2368H60.4202V70.7109H48.54V66.305H50.0308C50.387 66.305 50.6753 66.0166 50.6753 65.6604C50.6753 65.3046 50.387 65.0159 50.0308 65.0159H47.8971H47.8954H46.4503C46.0945 65.0159 45.8058 65.3043 45.8058 65.6604C45.8058 66.0163 46.0945 66.305 46.4503 66.305H47.2509V71.3555C47.2509 71.7116 47.5396 72 47.8954 72H61.0647C61.4205 72 61.7092 71.7116 61.7092 71.3555V65.026C64.5559 63.8249 66.9883 61.8523 68.7642 59.2997C70.6682 56.5621 71.675 53.3465 71.675 49.9997V44.305C71.675 35.3144 64.3605 28 55.3697 28Z" fill="white"/>
<path d="M46.885 43.5933C46.885 45.3329 47.408 47.0043 48.398 48.4273C49.2798 49.6949 50.4729 50.6869 51.8677 51.3173V52.6476H51.8006C51.4444 52.6476 51.156 52.936 51.156 53.2922C51.156 53.648 51.4444 53.9367 51.8006 53.9367H51.8677V55.6947C51.8677 56.0506 52.1564 56.3393 52.5122 56.3393H52.5797V57.8304C52.5797 58.1862 52.8684 58.4749 53.2242 58.4749H57.4953C57.8511 58.4749 58.1398 58.1862 58.1398 57.8304V56.3393H58.2073C58.5631 56.3393 58.8518 56.0506 58.8518 55.6947V53.9367H58.9189C59.2751 53.9367 59.5635 53.648 59.5635 53.2922C59.5635 52.936 59.2751 52.6476 58.9189 52.6476H58.8518V51.3173C60.2466 50.6869 61.4397 49.6949 62.3215 48.4273C63.3112 47.0043 63.8345 45.3329 63.8345 43.5933C63.8345 38.9201 60.0328 35.1184 55.3596 35.1184C50.6867 35.1184 46.885 38.9201 46.885 43.5933ZM53.8688 45.6615H54.381L55.6157 46.8965C55.7366 47.0174 55.9007 47.0855 56.0716 47.0855C56.2425 47.0855 56.4066 47.0174 56.5275 46.8965L56.8507 46.5733V50.2451H53.8688V45.6615ZM56.8507 57.1859H53.8688V56.3393H56.8507V57.1859ZM57.5627 55.0502H53.1568V53.9367H57.5627V55.0502ZM53.1568 52.6476V51.5341H57.5627V52.6476H53.1568ZM55.3599 36.4075C59.3221 36.4075 62.5454 39.6311 62.5454 43.5933C62.5454 46.5155 60.822 49.0967 58.1398 50.2202V45.017C58.1398 45.017 58.1398 45.017 58.1398 45.0167V44.305C58.1398 43.9492 57.8511 43.6605 57.4953 43.6605C57.1391 43.6605 56.8507 43.9492 56.8507 44.305V44.7501L56.0716 45.5293L55.1038 44.5611C54.9829 44.4403 54.8188 44.3725 54.6479 44.3725H53.8688V44.305C53.8688 43.9492 53.5804 43.6605 53.2242 43.6605C52.8684 43.6605 52.5797 43.9492 52.5797 44.305V50.2202C49.8975 49.0967 48.1741 46.5155 48.1741 43.5933C48.1741 39.6311 51.3974 36.4075 55.3599 36.4075Z" fill="white"/>
<path d="M56.0042 33.6272V31.4918C56.0042 31.1357 55.7158 30.8473 55.3596 30.8473C55.0038 30.8473 54.7151 31.1357 54.7151 31.4918V33.6272C54.7151 33.9833 55.0038 34.2717 55.3596 34.2717C55.7158 34.2717 56.0042 33.9833 56.0042 33.6272Z" fill="white"/>
<path d="M47.1955 34.6064C46.9438 34.355 46.5356 34.355 46.2838 34.6064C46.0324 34.8582 46.0324 35.2664 46.2838 35.5182L47.7941 37.0281C47.92 37.154 48.0848 37.2171 48.2499 37.2171C48.4148 37.2171 48.5796 37.154 48.7055 37.0281C48.9573 36.7763 48.9573 36.3685 48.7055 36.1167L47.1955 34.6064Z" fill="white"/>
<path d="M45.3049 43.0377H43.1692C42.8134 43.0377 42.5247 43.3264 42.5247 43.6823C42.5247 44.0384 42.8134 44.3268 43.1692 44.3268H45.3049C45.6607 44.3268 45.9494 44.0384 45.9494 43.6823C45.9494 43.3264 45.6607 43.0377 45.3049 43.0377Z" fill="white"/>
<path d="M47.7944 50.3364L46.2842 51.8467C46.0324 52.0985 46.0324 52.5063 46.2842 52.7581C46.41 52.884 46.5749 52.9468 46.7397 52.9468C46.9049 52.9468 47.0697 52.884 47.1956 52.7581L48.7059 51.2481C48.9576 50.9964 48.9576 50.5882 48.7059 50.3364C48.4541 50.0846 48.0459 50.085 47.7944 50.3364Z" fill="white"/>
<path d="M62.014 50.3364C61.7623 50.5882 61.7623 50.996 62.014 51.2478L63.524 52.7581C63.6499 52.884 63.815 52.9468 63.9798 52.9468C64.1447 52.9468 64.3098 52.884 64.4357 52.7581C64.6875 52.5063 64.6875 52.0981 64.4357 51.8464L62.9254 50.3364C62.6737 50.0846 62.2658 50.0846 62.014 50.3364Z" fill="white"/>
<path d="M67.5504 44.3268C67.9065 44.3268 68.1949 44.0381 68.1949 43.6823C68.1949 43.3261 67.9065 43.0377 67.5504 43.0377H65.4147C65.0585 43.0377 64.7701 43.3261 64.7701 43.6823C64.7701 44.0381 65.0585 44.3268 65.4147 44.3268H67.5504Z" fill="white"/>
<path d="M63.524 34.6064L62.0137 36.1167C61.7623 36.3685 61.7623 36.7764 62.0141 37.0281C62.1396 37.154 62.3048 37.2168 62.4696 37.2168C62.6344 37.2168 62.7996 37.154 62.9255 37.0281L64.4354 35.5178C64.6872 35.2661 64.6872 34.8582 64.4354 34.6064C64.184 34.3547 63.7758 34.3547 63.524 34.6064Z" fill="white"/>
</g>
<defs>
<filter id="filter0_d" x="-2" y="0" width="110" height="110" filterUnits="userSpaceOnUse" color-interpolation-filters="sRGB">
<feFlood flood-opacity="0" result="BackgroundImageFix"/>
<feColorMatrix in="SourceAlpha" type="matrix" values="0 0 0 0 0 0 0 0 0 0 0 0 0 0 0 0 0 0 127 0"/>
<feOffset dy="5"/>
<feGaussianBlur stdDeviation="10"/>
<feColorMatrix type="matrix" values="0 0 0 0 0.890196 0 0 0 0 0.721569 0 0 0 0 0.45098 0 0 0 0.5 0"/>
<feBlend mode="normal" in2="BackgroundImageFix" result="effect1_dropShadow"/>
<feBlend mode="normal" in="SourceGraphic" in2="effect1_dropShadow" result="shape"/>
</filter>
<clipPath id="clip0">
<rect width="44" height="44" fill="white" transform="translate(31 28)"/>
</clipPath>
</defs>
</svg>
