<svg width="108" height="110" viewBox="0 0 108 110" fill="none" xmlns="http://www.w3.org/2000/svg">
<g filter="url(#filter0_d)">
<rect x="18" y="15" width="70" height="70" fill="#E3B873"/>
</g>
<path d="M75 42.1824C75 40.2568 73.4337 38.6905 71.5081 38.6905H67.1696V36.4877C67.1696 36.1318 66.8813 35.8431 66.5251 35.8431H65.0339V32.2166C65.0339 31.8608 64.7456 31.5721 64.3894 31.5721H59.3392V30.793C59.3392 30.4371 59.0505 30.1484 58.6947 30.1484H47.305C46.9491 30.1484 46.6604 30.4371 46.6604 30.793V31.5721H41.6103C41.2541 31.5721 40.9657 31.8608 40.9657 32.2166V35.8431H39.4746C39.1187 35.8431 38.83 36.1318 38.83 36.4877V38.6905H34.4919C32.5663 38.6905 31 40.2568 31 42.1824V50.7248C31 51.0809 31.2887 51.3693 31.6445 51.3693H32.4233V66.3855C32.4233 68.3111 33.99 69.8774 35.9152 69.8774H70.0844C72.01 69.8774 73.5763 68.3111 73.5763 66.3855V51.3693H74.3555C74.5263 51.3693 74.6905 51.3015 74.8113 51.1806C74.9322 51.0598 75 50.896 75 50.7248V42.1824ZM65.8806 37.1322V38.6905H62.8986V37.1322H65.8806ZM47.9495 31.4375H58.0502V32.9958H47.9495V31.4375ZM40.1191 37.1322H43.1014V38.6905H40.1191V37.1322ZM72.2873 66.3855C72.2873 67.6004 71.299 68.5883 70.0844 68.5883H35.9152C34.7007 68.5883 33.7124 67.6004 33.7124 66.3855V51.3693H38.118V52.9276H37.3389C36.9831 52.9276 36.6944 53.2163 36.6944 53.5721V56.4195C36.6944 56.7753 36.9831 57.064 37.3389 57.064H38.118V59.2668C38.118 59.5112 38.256 59.7341 38.4745 59.8432L41.3219 61.2672C41.4125 61.3129 41.5112 61.3354 41.6103 61.3354C41.709 61.3354 41.8076 61.3129 41.8983 61.2672L44.7456 59.8432C44.9638 59.7341 45.1021 59.5112 45.1021 59.2668V57.064H45.881C46.2371 57.064 46.5255 56.7753 46.5255 56.4195V53.5721C46.5255 53.2163 46.2371 52.9276 45.881 52.9276H45.1021V51.3693H49.5078V54.2841C49.5078 54.64 49.7965 54.9286 50.1523 54.9286H55.8474C56.2032 54.9286 56.4919 54.64 56.4919 54.2841V51.3693H60.8975V52.9276H60.1184C59.7622 52.9276 59.4738 53.2163 59.4738 53.5721V56.4195C59.4738 56.7753 59.7622 57.064 60.1184 57.064H60.8975V59.2668C60.8975 59.5109 61.0352 59.7341 61.2537 59.8432L64.101 61.2672C64.1917 61.3129 64.2907 61.3354 64.3894 61.3354C64.4881 61.3354 64.5868 61.3129 64.6778 61.2672L67.5251 59.8432C67.7433 59.7341 67.8813 59.5112 67.8813 59.2668V57.064H68.6604C69.0166 57.064 69.305 56.7753 69.305 56.4195V53.5721C69.305 53.2163 69.0166 52.9276 68.6604 52.9276H67.8813V51.3693H72.2873V66.3855ZM39.4074 50.7264C39.4074 50.7261 39.4074 50.7254 39.4074 50.7248C39.4074 50.7244 39.4074 50.7238 39.4074 50.7231V48.5219H43.8131V52.9276H39.4074V50.7264ZM37.9838 47.2329V45.6743H45.2368V47.2329H37.9838ZM45.2368 54.2166V55.7749H37.9838V54.2166H45.2368ZM43.8131 57.064V58.8687L41.6103 59.9704L39.4074 58.8687V57.064H43.8131ZM52.3555 51.3693V52.1484C52.3555 52.5046 52.6438 52.793 53 52.793C53.3558 52.793 53.6445 52.5046 53.6445 52.1484V51.3693H55.2028V53.6396H50.7968V51.3693H52.3555ZM50.7968 50.0802V49.2339H55.2028V50.0802H50.7968ZM62.1866 50.7264C62.1866 50.7261 62.1866 50.7254 62.1866 50.7248C62.1866 50.7244 62.1866 50.7238 62.1866 50.7231V48.5219H66.5922V52.9276H62.1866V50.7264ZM60.7629 47.2329V45.6743H68.0159V47.2329H60.7629ZM68.0159 54.2166V55.7749H60.7629V54.2166H68.0159ZM66.5922 57.064V58.8687L64.3894 59.9704L62.1866 58.8687V57.064H66.5922ZM72.9345 50.0802C72.9335 50.0802 72.9328 50.0802 72.9318 50.0802C72.9311 50.0802 72.9301 50.0802 72.9294 50.0802H67.8813V48.5219H68.6604C69.0166 48.5219 69.305 48.2332 69.305 47.8774V45.6746H69.3724C69.7286 45.6746 70.017 45.3859 70.017 45.0301C70.017 44.6739 69.7286 44.3855 69.3724 44.3855H59.4067C59.0505 44.3855 58.7622 44.6739 58.7622 45.0301C58.7622 45.3859 59.0505 45.6746 59.4067 45.6746H59.4738V47.8774C59.4738 48.2332 59.7625 48.5219 60.1184 48.5219H60.8975V50.0802H56.4919V48.5894C56.4919 48.2332 56.2032 47.9449 55.8474 47.9449H50.1523C49.7965 47.9449 49.5078 48.2332 49.5078 48.5894V50.0802H45.1021V48.5219H45.8813C46.2371 48.5219 46.5258 48.2332 46.5258 47.8774V45.6746H46.5933C46.9491 45.6746 47.2378 45.3859 47.2378 45.0301C47.2378 44.6739 46.9491 44.3855 46.5933 44.3855H36.6272C36.2714 44.3855 35.9827 44.6739 35.9827 45.0301C35.9827 45.3859 36.2714 45.6746 36.6272 45.6746H36.6947V47.8774C36.6947 48.2332 36.9831 48.5219 37.3392 48.5219H38.1184V50.0802H32.2891V42.1824C32.2891 40.9678 33.2773 39.9796 34.4919 39.9796H46.5933C46.9491 39.9796 47.2378 39.6909 47.2378 39.335C47.2378 38.9792 46.9491 38.6905 46.5933 38.6905H44.3905V36.4877C44.3905 36.1318 44.1018 35.8431 43.7459 35.8431H42.2548V32.8612H46.6604V33.6403C46.6604 33.9965 46.9491 34.2849 47.305 34.2849H58.6947C59.0505 34.2849 59.3392 33.9965 59.3392 33.6403V32.8612H63.7452V35.8431H62.2541C61.8979 35.8431 61.6095 36.1318 61.6095 36.4877V38.6905H49.1754C48.8196 38.6905 48.5309 38.9792 48.5309 39.335C48.5309 39.6909 48.8196 39.9796 49.1754 39.9796H71.5081C72.7227 39.9796 73.7109 40.9678 73.7109 42.1824V50.0802H72.9345Z" fill="white"/>
<path d="M35.271 66.3853C35.271 66.7414 35.5594 67.0298 35.9155 67.0298H70.0844C70.4403 67.0298 70.7289 66.7414 70.7289 66.3853C70.7289 66.0294 70.4403 65.7407 70.0844 65.7407H35.9155C35.5594 65.7407 35.271 66.0294 35.271 66.3853Z" fill="white"/>
<defs>
<filter id="filter0_d" x="-2" y="0" width="110" height="110" filterUnits="userSpaceOnUse" color-interpolation-filters="sRGB">
<feFlood flood-opacity="0" result="BackgroundImageFix"/>
<feColorMatrix in="SourceAlpha" type="matrix" values="0 0 0 0 0 0 0 0 0 0 0 0 0 0 0 0 0 0 127 0"/>
<feOffset dy="5"/>
<feGaussianBlur stdDeviation="10"/>
<feColorMatrix type="matrix" values="0 0 0 0 0.890196 0 0 0 0 0.721569 0 0 0 0 0.45098 0 0 0 0.5 0"/>
<feBlend mode="normal" in2="BackgroundImageFix" result="effect1_dropShadow"/>
<feBlend mode="normal" in="SourceGraphic" in2="effect1_dropShadow" result="shape"/>
</filter>
</defs>
</svg>
